<svg xmlns="http://www.w3.org/2000/svg" viewBox="0 0 557.1 584.2" enable-background="new 0 0 557.1 584.2"><style type="text/css">.st0{fill:none;}</style><path class="st0" d="M230.7 382.7c-11.2 0-22-1.5-32.3-4.2-10.7-2.9-20.8-7.1-30.1-12.5-9.5-5.5-18.2-12.1-25.9-19.8-7.7-7.7-14.4-16.4-19.8-25.9-5.4-9.3-9.6-19.4-12.5-30.1-2.8-10.3-4.2-21.1-4.2-32.3 0-11.2 1.5-22 4.2-32.3 2.9-10.7 7.1-20.8 12.5-30.1l33.2 19.2c-3.7 6.5-6.7 13.5-8.7 20.9-1.9 7.1-2.9 14.6-2.9 22.4 0 7.7 1 15.2 2.9 22.4 2 7.4 4.9 14.4 8.7 20.9 3.8 6.6 8.4 12.6 13.7 17.9s11.4 9.9 17.9 13.7c6.5 3.7 13.5 6.7 20.9 8.7 7.1 1.9 14.6 2.9 22.4 2.9s15.2-1 22.4-2.9c7.4-2 14.4-4.9 20.9-8.7 6.6-3.8 12.6-8.4 17.9-13.7l27.1 27.1c-7.7 7.7-16.4 14.4-25.9 19.8-9.3 5.4-19.4 9.6-30.1 12.5-10.3 2.6-21.2 4.1-32.3 4.1zm110.4 66.3c16.8-9.7 32.2-21.5 45.8-35.1 13.6-13.6 25.4-29 35.1-45.8 9.6-16.5 17.1-34.4 22.1-53.2 4.9-18.2 7.5-37.4 7.5-57.2s-2.6-38.9-7.5-57.2c-5-18.9-12.5-36.7-22.1-53.2-9.7-16.8-21.5-32.2-35.1-45.8s-29-25.4-45.8-35.1c-16.5-9.6-34.4-17.1-53.2-22.1-18.2-4.9-37.4-7.5-57.2-7.5v38.4c16.3 0 32.2 2.2 47.2 6.2 15.6 4.2 30.3 10.4 44 18.3 13.8 8 26.6 17.7 37.8 29 11.2 11.2 21 24 29 37.8 7.9 13.7 14.1 28.4 18.3 44 4 15.1 6.2 30.9 6.2 47.2s-2.2 32.2-6.2 47.2c-4.2 15.6-10.4 30.3-18.3 44-8 13.8-17.7 26.6-29 37.8-11.2 11.2-24 21-37.8 29-13.6 7.9-28.4 14.1-44 18.3l9.9 37.1c18.9-5 36.7-12.5 53.3-22.1zm-33.4 96.3c25.4-6.8 49.5-16.9 71.8-29.7 22.6-13.1 43.3-29 61.6-47.3 18.3-18.3 34.3-39 47.3-61.6 12.9-22.3 23-46.4 29.7-71.8 6.6-24.6 10.1-50.4 10.1-77s-3.5-52.5-10.1-77c-6.8-25.4-16.9-49.5-29.7-71.8-13.1-22.6-29-43.3-47.3-61.6-18.3-18.5-39-34.4-61.6-47.5l-19.2 33.3c19.6 11.4 37.7 25.2 53.7 41.2s29.8 34 41.2 53.7c11.2 19.4 20 40.4 25.9 62.5 5.7 21.4 8.8 43.9 8.8 67.1 0 23.2-3.1 45.7-8.8 67.1-5.9 22.1-14.7 43.1-25.9 62.5-11.4 19.7-25.2 37.7-41.2 53.7s-34 29.8-53.7 41.2c-19.4 11.2-40.4 20-62.5 25.9-21.4 5.7-43.9 8.8-67.1 8.8s-45.7-3.1-67.1-8.8l-9.9 37.1c24.6 6.6 50.4 10.1 77 10.1s52.4-3.5 77-10.1zm-77-28.3c-23.1 0-45.6-3.1-66.9-8.8-22.2-5.9-43.1-14.7-62.5-25.9l19.2-33.2c16.5 9.5 34.4 17 53.3 22.1 18.2 4.8 37.3 7.5 57 7.5h.2c19.8 0 38.9-2.7 57.1-7.5 18.9-5.1 36.7-12.5 53.2-22.1 16.7-9.7 32.1-21.5 45.7-35.1s25.3-29 35-45.7c9.6-16.5 17-34.3 22.1-53.2 4.9-18.2 7.5-37.4 7.5-57.1v-.1c0-19.7-2.6-38.8-7.5-57-5-18.9-12.5-36.7-22-53.2-9.7-16.8-21.4-32.2-35-45.8s-29-25.4-45.7-35.1c-16.5-9.6-34.4-17.1-53.2-22.1l9.9-37.1c22.1 5.9 43.1 14.8 62.5 26 19.7 11.4 37.7 25.2 53.7 41.2 15.9 16 29.8 34 41.1 53.7 11.2 19.4 20 40.3 25.9 62.5 5.7 21.4 8.8 43.8 8.8 67v.1c0 23.2-3.1 45.7-8.8 67-5.9 22.1-14.7 43.1-25.9 62.4-11.6 19.5-25.5 37.6-41.4 53.5-15.9 16-34 29.8-53.7 41.2-19.4 11.2-40.3 20-62.4 26-21.4 5.7-43.9 8.8-67.1 8.9 0-.1-.1-.1-.1-.1zm.1 67.2c29.2 0 57.5-3.9 84.5-11.1 27.9-7.5 54.3-18.5 78.7-32.6 24.7-14.3 47.4-31.8 67.5-51.9s37.6-42.8 51.9-67.5c14.1-24.4 25.2-50.8 32.6-78.7 7.2-26.9 11.1-55.2 11.1-84.4v-.1c0-29.2-3.8-57.4-11-84.3-7.4-27.9-18.5-54.3-32.6-78.7-14.3-24.8-31.8-47.5-51.9-67.6l-20.4 20.4c18.3 18.3 34.2 39 47.3 61.6 12.9 22.3 22.9 46.3 29.7 71.8 6.5 24.5 10.1 50.3 10.1 76.9v.1c0 26.6-3.5 52.4-10.1 77-6.8 25.4-16.9 49.5-29.7 71.7-13.1 22.6-29 43.3-47.3 61.6-18.3 18.3-39 34.3-61.6 47.3-22.2 12.9-46.3 23-71.7 29.8-24.6 6.6-50.4 10.1-77 10.1h-.2c-26.6 0-52.3-3.5-76.8-10-25.4-6.8-49.5-16.8-71.8-29.7-22.6-13.1-43.3-29-61.7-47.3l-20.4 20.1c20.1 20.1 42.8 37.6 67.6 51.9 24.4 14.1 50.9 25.1 78.7 32.6 26.9 7.2 55.1 11 84.3 11h.2zm47.2-150.2c15.6-4.2 30.3-10.4 43.9-18.3 13.8-8 26.5-17.7 37.7-29 11.2-11.2 20.9-23.9 28.9-37.8 7.9-13.6 14.1-28.4 18.2-43.9 4-15.1 6.2-30.9 6.2-47.2v-.1c0-16.3-2.2-32.1-6.2-47.1-4.2-15.6-10.3-30.3-18.2-44-8-13.8-17.7-26.6-28.9-37.8-11.2-11.2-23.9-21-37.8-29-13.6-7.9-28.4-14.1-44-18.3-15.1-4-30.9-6.2-47.2-6.3h-.2c-16.3 0-32.1 2.2-47.1 6.2-15.6 4.2-30.4 10.3-44 18.2l28.8 49.9c9.4-5.4 19.5-9.6 30.2-12.5 10.3-2.7 21.1-4.2 32.2-4.2h.2c11.2 0 22 1.5 32.3 4.3 10.7 2.9 20.8 7.1 30.1 12.5 9.5 5.5 18.2 12.2 25.8 19.9 7.7 7.7 14.3 16.4 19.8 25.9 5.4 9.3 9.6 19.4 12.4 30.1 2.7 10.3 4.2 21.1 4.2 32.2v.1c0 11.2-1.5 22-4.3 32.3-2.9 10.7-7.1 20.7-12.5 30.1-5.5 9.5-12.1 18.2-19.8 25.8-7.7 7.7-16.4 14.3-25.8 19.8-9.3 5.4-19.4 9.6-30.1 12.5-10.3 2.8-21.1 4.3-32.3 4.3v57.6c16.7 0 32.5-2.2 47.5-6.2zm39.2-176.2c0-47.8-38.7-86.5-86.5-86.5s-86.5 38.7-86.5 86.5 38.7 86.5 86.5 86.5 86.5-38.7 86.5-86.5z"/></svg>