<svg width="35" height="35" viewBox="0 0 35 35" xmlns="http://www.w3.org/2000/svg" xmlns:xlink="http://www.w3.org/1999/xlink"><title>social icon</title><desc>Created with Sketch.</desc><defs><path id="a" d="M0 0h17v17h-17z"/></defs><g transform="translate(0 0)" fill="none"><circle fill="#fff" cx="17.5" cy="17.5" r="17.5"/><g transform="translate(9 8)"><mask id="b"><use xlink:href="#a"/></mask><path d="M9.563 17h-3.545v-8.682s-.058-2.154-.058-2.535h3.487l.116 1.552c.706-1.085 1.768-1.908 3.188-1.908 2.482 0 4.25 1.806 4.25 5.062v6.512h-3.544v-6.147c0-1.815-.863-2.535-1.926-2.535s-1.967.721-1.967 2.171v6.512zm-9.206 0h3.536v-11.218h-3.536v11.218zm1.751-13.023h-.025c-1.253 0-2.083-.882-2.083-1.993 0-1.119.847-1.984 2.142-1.984 1.278 0 2.092.865 2.108 1.984 0 1.111-.83 1.993-2.142 1.993z" fill="#0077B5" mask="url(#b)"/></g></g></svg>