<svg width="35" height="35" viewBox="0 0 35 35" xmlns="http://www.w3.org/2000/svg" xmlns:xlink="http://www.w3.org/1999/xlink"><title>social icon</title><desc>Created with Sketch.</desc><defs><path id="a" d="M0 0h20v16.19h-20z"/></defs><g transform="translate(0 0)" fill="none"><circle fill="#fff" cx="17.5" cy="17.5" r="17.5"/><g transform="translate(8 10)"><mask id="b"><use xlink:href="#a"/></mask><path d="M17.959 4.028v.535c0 5.4-4.121 11.627-11.66 11.627-2.314 0-4.492-.506-6.299-1.664.323.049.644.068.977.068 1.914 0 3.701-.827 5.088-1.936-1.777-.019-3.31-1.226-3.818-2.841.254.049.508.078.762.078.371 0 .742-.048 1.093-.146-1.875-.37-3.291-2.024-3.291-4.008v-.049c.556.301 1.181.486 1.855.506-1.113-.739-1.836-1.985-1.836-3.386 0-.759.215-1.382.556-1.985 2.042 2.471 5.049 4.009 8.447 4.194-.069-.292-.088-.623-.088-.944 0-2.258 1.826-4.077 4.092-4.077 1.182 0 2.246.506 3.018 1.284.918-.185 1.806-.525 2.588-.992-.303.953-.948 1.761-1.807 2.267.84-.098 1.621-.321 2.363-.652-.556.837-1.25 1.547-2.041 2.121" fill="#55ACEE" mask="url(#b)"/></g></g></svg>